<mxfile host="app.diagrams.net" agent="Mozilla/5.0 (Windows NT 10.0; Win64; x64) AppleWebKit/537.36 (KHTML, like Gecko) Chrome/140.0.0.0 Safari/537.36" version="28.2.1">
  <diagram name="PÃ¡gina-1" id="7G2m7Z22gbt_nFna2IkR">
    <mxGraphModel dx="1042" dy="562" grid="1" gridSize="10" guides="1" tooltips="1" connect="1" arrows="1" fold="1" page="1" pageScale="1" pageWidth="827" pageHeight="1169" math="0" shadow="0">
      <root>
        <mxCell id="0" />
        <mxCell id="1" parent="0" />
        <mxCell id="WUT8AAxCIaKDwNO0W5O3-1" value="&lt;div&gt;&lt;br&gt;&lt;/div&gt;" style="shape=umlLifeline;perimeter=lifelinePerimeter;whiteSpace=wrap;html=1;container=1;dropTarget=0;collapsible=0;recursiveResize=0;outlineConnect=0;portConstraint=eastwest;newEdgeStyle={&quot;curved&quot;:0,&quot;rounded&quot;:0};participant=umlActor;size=40;" vertex="1" parent="1">
          <mxGeometry x="159" y="150" width="20" height="300" as="geometry" />
        </mxCell>
        <mxCell id="WUT8AAxCIaKDwNO0W5O3-2" value="UEg" style="shape=umlLifeline;perimeter=lifelinePerimeter;whiteSpace=wrap;html=1;container=1;dropTarget=0;collapsible=0;recursiveResize=0;outlineConnect=0;portConstraint=eastwest;newEdgeStyle={&quot;curved&quot;:0,&quot;rounded&quot;:0};" vertex="1" parent="1">
          <mxGeometry x="329" y="150" width="100" height="300" as="geometry" />
        </mxCell>
        <mxCell id="WUT8AAxCIaKDwNO0W5O3-3" value="" style="html=1;points=[[0,0,0,0,5],[0,1,0,0,-5],[1,0,0,0,5],[1,1,0,0,-5]];perimeter=orthogonalPerimeter;outlineConnect=0;targetShapes=umlLifeline;portConstraint=eastwest;newEdgeStyle={&quot;curved&quot;:0,&quot;rounded&quot;:0};" vertex="1" parent="WUT8AAxCIaKDwNO0W5O3-2">
          <mxGeometry x="45" y="70" width="10" height="90" as="geometry" />
        </mxCell>
        <mxCell id="WUT8AAxCIaKDwNO0W5O3-4" value="UEv" style="shape=umlLifeline;perimeter=lifelinePerimeter;whiteSpace=wrap;html=1;container=1;dropTarget=0;collapsible=0;recursiveResize=0;outlineConnect=0;portConstraint=eastwest;newEdgeStyle={&quot;curved&quot;:0,&quot;rounded&quot;:0};" vertex="1" parent="1">
          <mxGeometry x="569" y="150" width="100" height="300" as="geometry" />
        </mxCell>
        <mxCell id="WUT8AAxCIaKDwNO0W5O3-5" value="" style="html=1;points=[[0,0,0,0,5],[0,1,0,0,-5],[1,0,0,0,5],[1,1,0,0,-5]];perimeter=orthogonalPerimeter;outlineConnect=0;targetShapes=umlLifeline;portConstraint=eastwest;newEdgeStyle={&quot;curved&quot;:0,&quot;rounded&quot;:0};" vertex="1" parent="WUT8AAxCIaKDwNO0W5O3-4">
          <mxGeometry x="45" y="80" width="10" height="70" as="geometry" />
        </mxCell>
        <mxCell id="WUT8AAxCIaKDwNO0W5O3-6" value="totalizaVotosUEg()" style="html=1;verticalAlign=bottom;endArrow=block;curved=0;rounded=0;" edge="1" parent="1" source="WUT8AAxCIaKDwNO0W5O3-1" target="WUT8AAxCIaKDwNO0W5O3-2">
          <mxGeometry x="-0.0474" y="-20" width="80" relative="1" as="geometry">
            <mxPoint x="429" y="320" as="sourcePoint" />
            <mxPoint x="509" y="320" as="targetPoint" />
            <Array as="points">
              <mxPoint x="269" y="230" />
            </Array>
            <mxPoint x="1" as="offset" />
          </mxGeometry>
        </mxCell>
        <mxCell id="WUT8AAxCIaKDwNO0W5O3-7" value="totalizaVotosUEv()" style="html=1;verticalAlign=bottom;endArrow=block;curved=0;rounded=0;" edge="1" parent="1" source="WUT8AAxCIaKDwNO0W5O3-2" target="WUT8AAxCIaKDwNO0W5O3-4">
          <mxGeometry x="-0.0474" y="-20" width="80" relative="1" as="geometry">
            <mxPoint x="199" y="230" as="sourcePoint" />
            <mxPoint x="389" y="230" as="targetPoint" />
            <Array as="points">
              <mxPoint x="479" y="250" />
            </Array>
            <mxPoint x="1" as="offset" />
          </mxGeometry>
        </mxCell>
        <mxCell id="WUT8AAxCIaKDwNO0W5O3-8" value="Quantidade de votos em cada UEv" style="html=1;verticalAlign=bottom;endArrow=block;curved=0;rounded=0;dashed=1;" edge="1" parent="1" source="WUT8AAxCIaKDwNO0W5O3-4" target="WUT8AAxCIaKDwNO0W5O3-2">
          <mxGeometry x="-0.0583" y="20" width="80" relative="1" as="geometry">
            <mxPoint x="429" y="320" as="sourcePoint" />
            <mxPoint x="509" y="320" as="targetPoint" />
            <Array as="points">
              <mxPoint x="479" y="280" />
            </Array>
            <mxPoint as="offset" />
          </mxGeometry>
        </mxCell>
        <mxCell id="WUT8AAxCIaKDwNO0W5O3-9" value="Quantidade de Votos Totais" style="html=1;verticalAlign=bottom;endArrow=block;curved=0;rounded=0;dashed=1;" edge="1" parent="1" source="WUT8AAxCIaKDwNO0W5O3-3" target="WUT8AAxCIaKDwNO0W5O3-1">
          <mxGeometry x="-0.0478" y="20" width="80" relative="1" as="geometry">
            <mxPoint x="659" y="270" as="sourcePoint" />
            <mxPoint x="429" y="270" as="targetPoint" />
            <Array as="points">
              <mxPoint x="199" y="300" />
            </Array>
            <mxPoint x="1" as="offset" />
          </mxGeometry>
        </mxCell>
      </root>
    </mxGraphModel>
  </diagram>
</mxfile>
